<?xml version="1.0" encoding="utf-8"?>
<!-- Generator: Adobe Illustrator 19.0.0, SVG Export Plug-In . SVG Version: 6.00 Build 0)  -->
<svg version="1.1" id="Layer_1" xmlns="http://www.w3.org/2000/svg" xmlns:xlink="http://www.w3.org/1999/xlink" x="0px" y="0px"
	 viewBox="0 0 24.8009949 22.375" style="enable-background:new 0 0 24.8009949 22.375;" xml:space="preserve">
<style type="text/css">
	.st0{fill-rule:evenodd;clip-rule:evenodd;fill:#99704A;}
	.st1{fill:#99704A;}
</style>
<g>
	<path class="st0" d="M15.1990051,15.1089783v1.5980225 M15.1990051,5.6679688V7.269989 M11.1989746,1.5899963L3.9999695,6.3909912
		H1.6019897C0.7149658,6.3909912,0,7.1049805,0,7.9880066v6.4029846c0,0.8819885,0.7149658,1.5969849,1.6019897,1.5969849h2.3979797
		l7.1990051,4.8009949c0.8869934,0,1.6020203-0.7189636,1.6020203-1.6009827v-16
		C12.8009949,2.3049927,12.085968,1.5899963,11.1989746,1.5899963L11.1989746,1.5899963z M3.9999695,13.5899963
		c0,0.440979-0.3590088,0.8009949-0.8009644,0.8009949H2.3980103c-0.4410095,0-0.7960205-0.3600159-0.7960205-0.8009949V8.7889709
		c0-0.440979,0.355011-0.8009644,0.7960205-0.8009644h0.8009949c0.4419556,0,0.8009644,0.3599854,0.8009644,0.8009644V13.5899963z
		 M11.1989746,19.1879883l-5.5969849-3.5v-9l5.5969849-3.5V19.1879883z"/>
</g>
<g>
	<path class="st1" d="M22.0592766,18.3319855l-1.8228016-3.1588326c-0.7422409-1.2082968-1.2082977-1.9936895-1.6536407-2.8205099
		h-0.0414276c-0.4039173,0.8268204-0.8061066,1.5914993-1.5483456,2.8412237l-1.7175074,3.1381187h-2.1196976l4.3671293-7.229929
		l-4.1962423-7.059042h2.1404114l1.8866682,3.3495708c0.5299244,0.9329782,0.9321156,1.6536403,1.313591,2.4165931h0.0638676
		c0.4039173-0.8483963,0.7629528-1.5051918,1.2928772-2.4165931l1.9505367-3.3495708h2.1196976l-4.3446903,6.9528837
		l4.4517117,7.3360872H22.0592766z"/>
</g>
</svg>
