<?xml version="1.0" encoding="utf-8"?>
<!-- Generator: Adobe Illustrator 19.0.0, SVG Export Plug-In . SVG Version: 6.00 Build 0)  -->
<svg version="1.1" id="Layer_1" xmlns="http://www.w3.org/2000/svg" xmlns:xlink="http://www.w3.org/1999/xlink" x="0px" y="0px"
	 viewBox="0 0 15.1990051 13.7122622" style="enable-background:new 0 0 15.1990051 13.7122622;" xml:space="preserve">
<style type="text/css">
	.st0{fill-rule:evenodd;clip-rule:evenodd;fill:#98704A;}
</style>
<g>
	<path class="st0" d="M12.2567701,6.8564291c0-1.7263575-1.2808304-3.1407974-2.942234-3.3828804v0.9817798
		c1.1202517,0.2273641,1.9604549,1.215858,1.9604549,2.4011006c0,1.1870756-0.8402033,2.1755877-1.9604549,2.4029341v0.9793291
		C10.9759398,9.9990597,12.2567701,8.5846386,12.2567701,6.8564291L12.2567701,6.8564291z M6.863163,0.9744099L2.4513354,3.9166446
		H0.981761C0.4381586,3.9166446,0,4.3542047,0,4.8953571v3.923996c0,0.5405159,0.4381586,0.978694,0.981761,0.978694h1.4695745
		l4.4118276,2.942234c0.5435839,0,0.9817796-0.440608,0.9817796-0.981144V1.953721
		C7.8449426,1.4125873,7.4067469,0.9744099,6.863163,0.9744099L6.863163,0.9744099z M2.4513354,8.3284721
		c0,0.2702494-0.2200146,0.490881-0.4908619,0.490881H1.469593c-0.2702676,0-0.4878321-0.2206316-0.4878321-0.490881V5.386219
		c0-0.2702489,0.2175645-0.4908619,0.4878321-0.4908619h0.4908805c0.2708473,0,0.4908619,0.220613,0.4908619,0.4908619V8.3284721z
		 M6.863163,11.7591372L3.433115,9.6142025V4.0986557L6.863163,1.953721V11.7591372z M9.3145361-0.000001v1.0081127
		c2.8797121,0.5527853,4.902689,2.9011831,4.902689,5.8483176c0,2.929985-1.9604549,5.2017775-4.902689,5.8501501v1.005682
		c3.3227901-0.485981,5.884469-3.3540792,5.884469-6.8558321C15.1990051,3.3540592,12.6373262,0.4859608,9.3145361-0.000001
		L9.3145361-0.000001z M9.3145361-0.000001"/>
</g>
</svg>
